<svg xmlns="http://www.w3.org/2000/svg" width="532" height="302" viewBox="0 0 532 302">
<rect width="532" height="302" fill="#1a1a1a" rx="8"/>
<rect x="10" y="10" width="512" height="256" fill="#FF8200"/>
<rect x="10" y="18" width="512" height="152" fill="none" stroke="#000000" stroke-width="2"/>
<rect x="18" y="142" width="4" height="24" fill="#000000"/>
<rect x="26" y="114" width="4" height="52" fill="#000000"/>
<rect x="34" y="70" width="4" height="96" fill="#000000"/>
<rect x="42" y="98" width="4" height="68" fill="#000000"/>
<rect x="50" y="74" width="4" height="92" fill="#000000"/>
<rect x="58" y="126" width="4" height="40" fill="#000000"/>
<rect x="66" y="134" width="4" height="32" fill="#000000"/>
<rect x="74" y="114" width="4" height="52" fill="#000000"/>
<rect x="82" y="110" width="4" height="56" fill="#000000"/>
<rect x="90" y="70" width="4" height="96" fill="#000000"/>
<rect x="98" y="114" width="4" height="52" fill="#000000"/>
<rect x="106" y="102" width="4" height="64" fill="#000000"/>
<rect x="114" y="118" width="4" height="48" fill="#000000"/>
<rect x="122" y="134" width="4" height="32" fill="#000000"/>
<rect x="130" y="94" width="4" height="72" fill="#000000"/>
<rect x="138" y="114" width="4" height="52" fill="#000000"/>
<rect x="146" y="86" width="4" height="80" fill="#000000"/>
<rect x="154" y="74" width="4" height="92" fill="#000000"/>
<rect x="162" y="126" width="4" height="40" fill="#000000"/>
<rect x="170" y="138" width="4" height="28" fill="#000000"/>
<rect x="178" y="126" width="4" height="40" fill="#000000"/>
<rect x="186" y="90" width="4" height="76" fill="#000000"/>
<rect x="194" y="54" width="4" height="112" fill="#000000"/>
<rect x="202" y="102" width="4" height="64" fill="#000000"/>
<rect x="210" y="102" width="4" height="64" fill="#000000"/>
<rect x="218" y="142" width="4" height="24" fill="#000000"/>
<rect x="226" y="118" width="4" height="48" fill="#000000"/>
<rect x="234" y="74" width="4" height="92" fill="#000000"/>
<rect x="242" y="98" width="4" height="68" fill="#000000"/>
<rect x="250" y="74" width="4" height="92" fill="#000000"/>
<rect x="258" y="122" width="4" height="44" fill="#000000"/>
<rect x="266" y="130" width="4" height="36" fill="#000000"/>
<rect x="274" y="118" width="4" height="48" fill="#000000"/>
<rect x="282" y="110" width="4" height="56" fill="#000000"/>
<rect x="290" y="74" width="4" height="92" fill="#000000"/>
<rect x="298" y="114" width="4" height="52" fill="#000000"/>
<rect x="306" y="98" width="4" height="68" fill="#000000"/>
<rect x="314" y="114" width="4" height="52" fill="#000000"/>
<rect x="322" y="138" width="4" height="28" fill="#000000"/>
<rect x="330" y="98" width="4" height="68" fill="#000000"/>
<rect x="338" y="114" width="4" height="52" fill="#000000"/>
<rect x="346" y="82" width="4" height="84" fill="#000000"/>
<rect x="354" y="70" width="4" height="96" fill="#000000"/>
<rect x="362" y="122" width="4" height="44" fill="#000000"/>
<rect x="370" y="142" width="4" height="24" fill="#000000"/>
<rect x="378" y="130" width="4" height="36" fill="#000000"/>
<rect x="386" y="94" width="4" height="72" fill="#000000"/>
<rect x="394" y="54" width="4" height="112" fill="#000000"/>
<rect x="402" y="102" width="4" height="64" fill="#000000"/>
<rect x="410" y="98" width="4" height="68" fill="#000000"/>
<rect x="418" y="138" width="4" height="28" fill="#000000"/>
<rect x="426" y="122" width="4" height="44" fill="#000000"/>
<rect x="434" y="74" width="4" height="92" fill="#000000"/>
<rect x="442" y="98" width="4" height="68" fill="#000000"/>
<rect x="450" y="74" width="4" height="92" fill="#000000"/>
<rect x="458" y="122" width="4" height="44" fill="#000000"/>
<rect x="466" y="126" width="4" height="40" fill="#000000"/>
<rect x="474" y="122" width="4" height="44" fill="#000000"/>
<rect x="482" y="114" width="4" height="52" fill="#000000"/>
<rect x="490" y="74" width="4" height="92" fill="#000000"/>
<line x1="290" y1="18" x2="290" y2="170" stroke="#000000" stroke-width="2"/>
<text x="22" y="58" font-size="20" fill="#000000" text-anchor="start" font-family="'DejaVu Sans Mono','Consolas',monospace">300-348 MHz</text>
<text x="18" y="210" font-size="20" fill="#000000" text-anchor="start" font-family="'DejaVu Sans Mono','Consolas',monospace">433.92  hot 7</text>
<text x="18" y="258" font-size="20" fill="#000000" text-anchor="start" font-family="'DejaVu Sans Mono','Consolas',monospace">pass 12  180s  Back:stop</text>
<text x="266" y="294" font-size="15" fill="#bbbbbb" text-anchor="middle" font-family="'DejaVu Sans Mono','Consolas',monospace">placeholder mock · Recon live: spectrum strip</text>
</svg>